# Blender 3.5.1
# www.blender.org
mtllib grass_mod.mtl
o 10450_Rectangular_Grass_Patch_v1_iterations-2
v -122.252884 -129.379501 9.124403
v -142.219070 -130.438080 9.465753
v 128.283752 149.971283 10.497365
v 126.288437 146.716141 8.683355
v 149.832916 149.778412 8.652863
v -147.266937 -149.951431 8.676492
v -115.781769 -149.892914 9.593645
v -149.921875 149.918243 8.069673
v 149.959167 -149.767517 7.639771
v -149.829254 -149.968277 7.656786
v 124.242783 -149.918671 10.134711
v 149.792526 143.917831 9.768765
v -133.340179 149.844543 6.788960
v -149.952881 -141.613724 8.527001
v -149.796341 -127.288010 7.790990
v -149.703629 144.738007 8.774445
v 145.523117 -149.931580 6.267517
v 1.661403 -138.226837 8.032364
v 27.126657 -143.075867 8.533493
v 149.839355 149.848785 0.017329
v -17.840721 149.997314 9.552799
v -0.613344 -149.906998 8.631307
v 36.866642 149.955658 7.329837
v 8.209893 147.771271 9.782303
v -23.276276 -2.114582 5.913205
v -149.978180 -11.875148 7.612310
v -146.499008 -27.062965 6.650326
v 149.898773 -22.444651 8.527828
v 149.905594 14.628877 11.076028
v -149.909409 13.968845 8.942213
v -1.859844 -87.332474 7.378581
v -149.434113 149.581848 0.006306
v -149.981339 84.342537 10.254835
v -149.932953 71.946007 10.242886
v 149.972321 -68.989258 8.901843
v -149.965973 -66.934898 8.099671
v -10.188375 71.804337 8.430131
v -149.875595 -149.772125 0.008394
v -149.881653 -89.716896 8.223189
v 149.953674 -98.371162 5.896456
v 144.714203 90.141838 8.336230
v 149.714783 67.500465 8.511749
v -72.473480 -141.648651 6.987966
v -57.567261 -126.690773 7.479388
v 54.906693 146.529831 8.616590
v 93.209145 148.755356 7.906001
v -76.254303 -149.925537 5.475089
v 68.612465 -149.980789 6.734694
v -87.074539 149.984253 5.716115
v 72.261688 -110.568993 9.199617
v -89.266655 -150.002930 0.844897
v -58.372242 80.483139 8.875370
v -78.381615 57.072449 7.591071
v -77.253181 3.737291 7.369561
v -84.534950 -32.819210 11.770761
v -67.750076 109.693642 8.411220
v 63.672596 130.303528 8.197680
v -71.317024 -107.471085 9.891354
v -72.401299 -88.191833 9.514566
v -95.119934 -106.929710 7.603709
v -149.579117 113.066956 7.294147
v -146.427032 104.653152 7.073141
v 149.021408 -79.205231 7.857064
v 148.902527 -134.251892 7.013326
v 149.995346 89.763252 8.615677
v -149.887344 -105.631485 10.605064
v 143.547699 -89.767860 7.877012
v 76.380531 -96.884880 8.287880
v 29.289610 -119.228973 9.284327
v -11.280263 26.233988 6.794859
v -149.973679 -41.181049 5.792353
v 149.578033 45.354595 7.879437
v -149.816666 37.103737 7.516312
v 128.184692 60.389309 6.299567
v 125.579605 29.193127 7.752221
v 14.315078 -36.831844 6.238416
v -17.276667 -33.951649 8.388718
v 141.795029 -39.992378 9.023936
v 150.002258 76.012482 0.864931
v 145.204269 -8.847206 10.022883
v -3.302725 91.183792 10.249908
v -15.703032 108.436104 10.388561
v 149.837128 -149.858353 0.071618
v 148.658096 114.352638 11.761320
v 142.050659 127.406662 10.437667
v -143.109650 -110.789856 11.840958
v 126.716026 125.269470 10.765729
v 120.637444 105.619370 9.146589
v -25.493216 -118.128342 8.496210
v 127.104271 -107.414459 10.156846
v 15.026545 -55.858582 6.977102
v 17.082724 89.656868 9.625947
v -96.710449 -141.504837 7.998209
v -82.616837 -123.372086 7.954077
v 104.545006 149.968811 6.960606
v -91.644356 -149.868927 5.737772
v 101.681511 -149.707123 9.888491
v -106.886276 149.846329 7.672344
v 75.435364 142.914734 6.778126
v 115.158241 137.068253 8.741109
v 70.900169 -139.790512 7.745467
v 43.385483 -128.727722 10.292889
v -59.132420 148.768631 9.245751
v 31.042648 -149.978027 8.753136
v 56.134460 -148.349487 6.228690
v -30.375532 145.709442 8.675543
v -57.655567 135.849976 8.590728
v -70.514221 28.306952 8.171219
v 107.850670 41.346424 6.406573
v 128.144150 18.953598 9.015814
v -36.511284 -26.571558 8.209432
v -58.477108 -22.073631 10.256832
v -35.217712 -54.827332 7.038182
v 70.529648 -43.900452 9.888666
v 118.656357 -51.338272 8.599910
v -35.232464 112.800507 12.021746
v 117.019531 89.598183 9.383366
v 102.621964 79.229279 10.361708
v -16.655054 -130.584045 8.833189
v -33.723953 -149.927719 10.725569
v 125.149002 -139.933670 8.103295
v 102.466820 -113.785126 7.582343
v -122.599075 141.876495 7.745911
v -90.736984 142.653656 7.733599
v -95.535896 75.076660 10.427840
v -139.827698 66.978439 10.052162
v -99.896973 46.799690 5.987584
v 12.999239 47.901260 7.948263
v 42.394596 56.732403 7.572601
v -108.970955 0.866886 6.220332
v -127.749306 -12.610472 7.834742
v 13.148619 0.501082 8.548432
v -123.503212 -68.504929 10.070713
v 54.648327 -70.205452 5.427264
v 19.861412 -84.359406 4.585236
v -35.625828 62.559666 8.182310
v 80.302315 63.270313 9.301531
v 88.051201 0.379511 10.820916
v 112.773331 -24.822895 8.581664
v 99.862938 122.243347 6.850176
v -65.242912 -64.958199 11.874787
v -55.563660 -92.341919 8.504567
v -42.409485 -78.619003 9.004078
v 86.174034 -75.901405 8.995317
v 108.800423 -77.583313 7.384163
v -93.485809 25.064821 5.860114
v 37.323822 30.908482 11.303558
v -86.610962 -84.775314 9.064939
v -110.266853 -34.452766 9.712287
v -116.815895 93.025543 8.426177
v 50.936253 74.629761 8.753701
v 48.981621 -91.227753 4.431533
v 115.469757 -1.653698 7.649725
v -134.749557 19.002977 7.761947
v -149.965485 149.968369 0.381935
v 84.258621 23.751644 10.320669
v 74.558586 108.687569 9.674903
v -122.220795 -96.606636 11.891191
v 3.408478 -106.731064 9.625082
v 146.175003 29.977434 9.602802
v 65.660576 36.428787 11.006725
v -107.538116 120.792732 9.700728
v 56.395306 105.031921 9.436588
v -12.421437 -89.865776 7.386744
v 46.394596 -39.026905 8.682229
v 42.105679 -13.384863 7.554347
v 29.056379 130.235657 8.424406
v 36.429890 95.795418 11.639913
vn -0.1219 -0.6868 0.7166
vn -0.0777 -0.0491 0.9958
vn -0.7457 -0.0013 0.6663
vn -0.0330 -0.1942 0.9804
vn 0.5828 0.5899 0.5589
vn 0.0109 0.5022 0.8647
vn 0.0353 -0.0286 0.9990
vn 0.0254 -0.6849 0.7282
vn -0.6512 -0.6345 0.4164
vn -0.5778 -0.5706 -0.5836
vn -0.6585 0.0363 0.7517
vn 0.0279 0.7604 0.6489
vn -0.5680 0.6024 0.5609
vn -0.0171 0.0473 0.9987
vn 0.0153 -0.0077 0.9999
vn -0.0035 -0.0165 0.9999
vn -0.0074 0.0583 0.9983
vn 0.5736 -0.5771 -0.5813
vn -0.0005 -0.9935 -0.1142
vn 0.0215 -0.6843 0.7289
vn 0.0437 -0.6712 0.7400
vn -0.0119 -0.6611 0.7502
vn -0.0348 -0.0333 0.9988
vn -0.0311 -0.0178 0.9994
vn -0.0089 0.0294 0.9995
vn -0.0369 0.0922 0.9951
vn 0.0211 -0.0289 0.9994
vn 0.5867 0.0121 0.8097
vn 0.0343 -0.0239 0.9991
vn 0.0104 0.0048 0.9999
vn 0.7039 -0.0451 0.7089
vn 0.6236 0.0518 0.7800
vn 0.9962 -0.0033 -0.0875
vn -0.6777 0.0208 0.7351
vn -0.7135 -0.0193 0.7004
vn 0.0090 -0.0157 0.9998
vn 0.0264 -0.0072 0.9996
vn -0.0018 -0.0460 0.9989
vn -0.0081 -0.0501 0.9987
vn 0.5784 0.5790 -0.5746
vn 0.6816 -0.0471 0.7302
vn 0.8172 -0.0023 0.5763
vn -0.0033 -0.0317 0.9995
vn -0.0363 -0.0598 0.9976
vn 0.0390 -0.0045 0.9992
vn -0.0092 0.2863 0.9581
vn 0.0003 0.7480 0.6637
vn 0.0063 0.1529 0.9882
vn 0.0349 -0.1082 0.9935
vn -0.0045 -0.6038 0.7971
vn 0.0193 0.0353 0.9992
vn -0.0364 -0.0817 0.9960
vn -0.0092 -0.0365 0.9993
vn 0.0080 -0.0520 0.9986
vn -0.0100 -0.0623 0.9980
vn 0.0249 0.0419 0.9988
vn 0.0006 -0.0402 0.9992
vn -0.0174 -0.0340 0.9993
vn 0.0074 -0.0448 0.9990
vn 0.0987 0.0421 0.9942
vn -0.5993 0.0214 0.8002
vn -0.7314 0.0401 0.6808
vn -0.7462 0.0516 0.6637
vn 0.0145 -0.0637 0.9979
vn 0.2399 -0.0953 0.9661
vn 0.7547 -0.0289 0.6554
vn -0.0439 -0.0250 0.9987
vn -0.8745 0.0366 0.4836
vn -0.7311 0.0181 0.6820
vn -0.0251 0.1057 0.9941
vn -0.6536 0.6343 -0.4128
vn -0.7111 -0.0401 0.7019
vn 0.0139 0.0002 0.9999
vn 0.0120 -0.0087 0.9999
vn 0.1269 0.1967 0.9722
vn 0.3828 -0.0397 0.9230
vn -0.0316 0.0508 0.9982
vn -0.0459 0.0386 0.9982
vn -0.0553 -0.0178 0.9983
vn 0.0026 0.0433 0.9991
vn -0.0245 0.0044 0.9997
vn 0.0130 0.0615 0.9980
vn 0.0382 0.0527 0.9979
vn 0.0062 0.0014 1.0000
vn -0.0302 0.0316 0.9990
vn 0.0630 -0.6157 0.7854
vn -0.0437 -0.7435 0.6673
vn 0.0027 0.7000 0.7141
vn -0.0186 0.8170 0.5763
vn 0.0367 0.1917 0.9808
vn -0.0227 0.7062 0.7076
vn -0.0307 0.4627 0.8860
vn -0.0195 -0.0576 0.9981
vn 0.0096 -0.0080 0.9999
vn 0.0029 -0.0396 0.9992
vn -0.0346 -0.0150 0.9993
vn 0.0605 0.0631 0.9962
vn 0.0430 0.0411 0.9982
vn 0.0559 0.0106 0.9984
vn 0.0615 0.0709 0.9956
vn 0.0585 -0.0014 0.9983
vn -0.0097 0.0150 0.9998
vn 0.0095 0.0466 0.9989
vn 0.0362 -0.0316 0.9988
vn -0.0167 -0.0058 0.9998
vn 0.0054 0.0176 0.9998
vn -0.0236 -0.7724 0.6347
vn 0.0531 0.0567 0.9970
vn 0.0127 0.1261 0.9919
vn 0.0094 -0.0002 1.0000
vn -0.0406 -0.0250 0.9989
vn -0.0267 0.0247 0.9993
vn -0.0518 0.0354 0.9980
vn -0.0232 0.0308 0.9993
vn 0.0218 -0.0546 0.9983
vn -0.0008 -0.0002 1.0000
vn 0.0768 -0.0910 0.9929
vn -0.0001 0.8788 0.4772
vn -0.0586 0.0262 0.9979
vn -0.2260 0.3044 -0.9254
vn 0.0012 0.0022 1.0000
vn -0.0309 -0.0776 0.9965
vn -0.0048 0.0247 0.9997
vn 0.0107 -0.0702 0.9975
vn -0.0319 0.0164 0.9994
vn -0.0280 0.0561 0.9980
vn -0.0294 0.0365 0.9989
vn -0.0425 0.0305 0.9986
vn 0.0035 0.0142 0.9999
vn 0.0253 0.0333 0.9991
vn -0.0298 0.0258 0.9992
vn 0.0526 0.0063 0.9986
vn -0.0020 0.0227 0.9997
vn -0.0647 -0.0702 0.9954
vn 0.0249 -0.0233 0.9994
vn 0.0682 0.0318 0.9972
vn -0.0562 0.0333 0.9979
vn 0.0485 -0.7782 0.6262
vn 0.0116 0.0373 0.9992
vn 0.0194 -0.0158 0.9997
vn 0.0363 -0.0338 0.9988
vn 0.0369 0.2503 0.9675
vn -0.0416 -0.7674 0.6398
vn 0.0165 0.0672 0.9976
vn 0.0352 -0.0457 0.9983
vn 0.0211 0.0016 0.9998
vn -0.0159 -0.0033 0.9999
vn 0.4995 -0.5443 0.6740
vn -0.6816 0.0131 0.7316
vn 0.0031 -0.0206 0.9998
vn -0.0572 -0.0290 0.9979
vn 0.0243 0.0251 0.9994
vn -0.0113 -0.0430 0.9990
vn -0.0523 0.0879 0.9948
vn -0.0255 0.0441 0.9987
vn 0.5648 -0.0212 0.8250
vn -0.0252 0.0279 0.9993
vn -0.0208 -0.0350 0.9992
vn 0.0006 -0.0395 0.9992
vn 0.0305 -0.0447 0.9985
vn 0.0702 -0.0016 0.9975
vn 0.0120 -0.0201 0.9997
vn 0.0074 -0.0126 0.9999
vn -0.0387 -0.0455 0.9982
vn -0.7934 -0.0415 0.6073
vn -0.0915 -0.0000 0.9958
vn -0.0970 -0.0517 0.9939
vn -0.0015 -0.0347 0.9994
vt 0.111433 0.087683
vt 0.042993 0.083392
vt 0.914491 0.983826
vt 0.907436 0.977467
vt 0.983503 0.983068
vt 0.026533 0.017954
vt 0.128604 0.021376
vt 0.017838 0.983898
vt 0.984471 0.017325
vt 0.017504 0.016599
vt 0.902569 0.019481
vt 0.983344 0.964403
vt 0.070684 0.983315
vt 0.018550 0.041674
vt 0.018855 0.088111
vt 0.020639 0.965706
vt 0.967388 0.017101
vt 0.503141 0.053736
vt 0.594233 0.049421
vt 0.983418 0.996233
vt 0.996894 0.983473
vt 0.013623 0.987400
vt 0.449168 0.984294
vt 0.499591 0.016619
vt 0.614893 0.980728
vt 0.528317 0.969676
vt 0.431544 0.493420
vt 0.017743 0.462323
vt 0.031825 0.414779
vt 0.983785 0.426530
vt 0.982118 0.548035
vt 0.020660 0.547264
vt 0.503351 0.216534
vt 0.018408 0.997000
vt 0.003019 0.987400
vt 0.017291 0.772521
vt 0.022343 0.731501
vt 0.982728 0.278078
vt 0.017886 0.278610
vt 0.478722 0.748082
vt 0.018100 0.004189
vt 0.004288 0.017061
vt 0.003012 0.998000
vt 0.017858 0.214751
vt 0.984620 0.182563
vt 0.965050 0.793136
vt 0.970361 0.717354
vt 0.268714 0.041265
vt 0.324274 0.088190
vt 0.678088 0.968095
vt 0.799685 0.974020
vt 0.255504 0.021482
vt 0.721009 0.015099
vt 0.219217 0.980773
vt 0.732244 0.119305
vt 0.215055 0.014188
vt 0.303462 0.773887
vt 0.237792 0.677106
vt 0.250216 0.512138
vt 0.231540 0.395574
vt 0.275982 0.861015
vt 0.703245 0.924199
vt 0.270031 0.152751
vt 0.265057 0.215786
vt 0.193291 0.151011
vt 0.020159 0.864429
vt 0.037218 0.838045
vt 0.967241 0.244846
vt 0.978338 0.067220
vt 0.982361 0.791582
vt 0.020666 0.157591
vt 0.958155 0.207062
vt 0.741076 0.190476
vt 0.591357 0.128138
vt 0.468303 0.588410
vt 0.019521 0.367825
vt 0.979971 0.646758
vt 0.015548 0.618814
vt 0.916778 0.697310
vt 0.908461 0.598487
vt 0.545908 0.388203
vt 0.457518 0.390517
vt 0.964479 0.372898
vt 0.980855 0.740633
vt 0.967824 0.471075
vt 0.498480 0.791896
vt 0.444464 0.851457
vt 0.996681 0.017442
vt 0.983673 0.004189
vt 0.013641 0.998000
vt 0.978503 0.868952
vt 0.955127 0.909695
vt 0.039165 0.146177
vt 0.908639 0.900985
vt 0.893004 0.849997
vt 0.419440 0.144411
vt 0.909012 0.154714
vt 0.554018 0.316225
vt 0.556203 0.791218
vt 0.189429 0.040700
vt 0.231959 0.108346
vt 0.839272 0.984897
vt 0.207118 0.017787
vt 0.835981 0.026141
vt 0.150771 0.979858
vt 0.744911 0.960703
vt 0.872203 0.937578
vt 0.726536 0.048597
vt 0.642701 0.084003
vt 0.309509 0.974869
vt 0.598906 0.022578
vt 0.680966 0.022504
vt 0.397648 0.966745
vt 0.325653 0.928006
vt 0.277709 0.599786
vt 0.839787 0.629517
vt 0.907072 0.551317
vt 0.385976 0.410759
vt 0.312887 0.431035
vt 0.386204 0.322337
vt 0.745372 0.351301
vt 0.884408 0.326603
vt 0.385029 0.859254
vt 0.875774 0.783977
vt 0.827303 0.749510
vt 0.445262 0.079984
vt 0.392319 0.018077
vt 0.903799 0.055924
vt 0.827918 0.132025
vt 0.095699 0.947459
vt 0.212984 0.959549
vt 0.186678 0.748335
vt 0.047549 0.713638
vt 0.177776 0.650141
vt 0.545818 0.652269
vt 0.638687 0.690922
vt 0.148785 0.502818
vt 0.084429 0.459231
vt 0.545610 0.501263
vt 0.106997 0.275989
vt 0.677929 0.273827
vt 0.564846 0.229373
vt 0.383447 0.718624
vt 0.759965 0.703888
vt 0.786802 0.496667
vt 0.875308 0.421997
vt 0.818916 0.896819
vt 0.282921 0.287314
vt 0.322253 0.204131
vt 0.359171 0.247890
vt 0.779983 0.251143
vt 0.856403 0.249121
vt 0.211803 0.579485
vt 0.619010 0.600499
vt 0.217407 0.222944
vt 0.156349 0.394038
vt 0.125489 0.803741
vt 0.663964 0.743673
vt 0.660876 0.203902
vt 0.872238 0.497282
vt 0.071993 0.565226
vt 0.003000 0.987400
vt 0.017835 0.995885
vt 0.005179 0.983566
vt 0.773742 0.576025
vt 0.740784 0.846054
vt 0.109355 0.191163
vt 0.511455 0.153214
vt 0.968537 0.595390
vt 0.708706 0.628229
vt 0.154832 0.889030
vt 0.685682 0.835873
vt 0.462476 0.217245
vt 0.654593 0.365496
vt 0.626935 0.463804
vt 0.604999 0.906388
vt 0.619481 0.809830
s 1
usemtl 10450_Rectangular_Grass_Patch_v1
f 6/6/1 2/2/2 14/14/3
f 4/4/4 5/5/5 3/3/6
f 1/1/7 6/6/1 7/7/8
f 6/6/1 14/14/3 10/10/9
f 10/10/9 14/14/3 38/42/10
f 10/10/9 38/41/10 7/7/8
f 16/16/11 13/13/12 8/8/13
f 16/16/11 123/130/14 13/13/12
f 18/18/15 19/19/16 69/74/17
f 83/89/18 51/56/19 38/41/10
f 22/24/20 51/56/19 104/111/21
f 51/56/19 22/24/20 120/127/22
f 104/111/21 18/18/15 22/24/20
f 132/139/23 70/75/24 25/27/25
f 160/169/26 80/85/27 29/31/28
f 160/169/26 153/160/29 80/85/27
f 160/169/26 110/117/30 153/160/29
f 65/70/31 72/77/32 79/84/33
f 34/37/34 73/78/35 126/133/36
f 82/87/37 37/40/38 81/86/39
f 20/21/40 79/84/33 83/88/18
f 35/38/41 40/45/42 79/84/33
f 74/79/43 41/46/44 117/124/45
f 46/51/46 23/25/47 45/50/48
f 46/51/46 45/50/48 99/106/49
f 97/104/50 50/55/51 101/108/52
f 52/57/53 125/132/54 53/58/55
f 45/50/48 57/62/56 99/106/49
f 59/64/57 148/155/58 58/63/59
f 62/67/60 61/66/61 34/37/34
f 66/71/62 39/44/63 38/42/10
f 63/68/64 67/72/65 40/45/42
f 79/84/33 28/30/66 35/38/41
f 27/29/67 71/76/68 36/39/69
f 72/77/32 75/80/70 160/169/26
f 73/78/35 155/164/71 26/28/72
f 139/146/73 78/83/74 80/85/27
f 65/70/31 12/12/75 84/91/76
f 84/91/76 85/92/77 41/46/44
f 41/46/44 87/94/78 88/95/79
f 85/92/77 87/94/78 41/46/44
f 164/173/80 89/96/81 159/168/82
f 31/33/83 164/173/80 159/168/82
f 63/68/64 90/97/84 67/72/65
f 36/39/69 133/140/85 27/29/67
f 11/11/86 97/104/50 48/53/87
f 98/105/88 49/54/89 155/163/71
f 11/11/86 48/53/87 83/89/18
f 104/111/21 48/53/87 105/112/90
f 104/111/21 105/112/90 19/19/16
f 21/23/91 103/110/92 106/113/93
f 107/114/94 106/113/93 103/110/92
f 136/143/95 108/115/96 70/75/24
f 25/27/25 70/75/24 108/115/96
f 156/165/97 75/80/70 109/116/98
f 111/118/99 112/119/100 113/120/101
f 52/57/53 116/123/102 107/114/94
f 157/166/103 118/125/104 117/124/45
f 89/96/81 44/49/105 119/126/106
f 47/52/107 51/56/19 120/127/22
f 97/104/50 11/11/86 121/128/108
f 124/131/109 98/105/88 123/130/14
f 76/81/110 166/175/111 132/139/23
f 111/118/99 25/27/25 112/119/100
f 106/113/93 107/114/94 116/123/102
f 99/106/49 140/147/112 46/51/46
f 149/156/113 133/140/85 148/155/58
f 129/136/114 151/158/115 168/177/116
f 7/7/8 93/100/117 1/1/7
f 7/7/8 38/41/10 51/56/19
f 95/102/118 46/51/46 4/4/4
f 100/107/119 4/4/4 46/51/46
f 100/107/119 5/5/5 4/4/4
f 32/34/120 155/163/71 20/20/40
f 31/33/83 77/82/121 113/120/101
f 120/127/22 119/126/106 44/49/105
f 120/127/22 43/48/122 47/52/107
f 121/128/108 122/129/123 97/104/50
f 127/134/124 53/58/55 125/132/54
f 146/153/125 130/137/126 149/156/113
f 146/153/125 149/156/113 55/60/127
f 124/131/109 123/130/14 162/171/128
f 56/61/129 124/131/109 162/171/128
f 167/176/130 57/62/56 45/50/48
f 136/143/95 128/135/131 37/40/38
f 109/116/98 74/79/43 118/125/104
f 82/87/37 106/113/93 116/123/102
f 130/137/126 154/161/132 131/138/133
f 146/153/125 154/161/132 130/137/126
f 134/141/134 91/98/135 135/142/136
f 150/157/137 126/133/36 125/132/54
f 95/102/118 20/20/40 23/25/47
f 23/25/47 46/51/46 95/102/118
f 96/103/138 43/48/122 93/100/117
f 48/53/87 51/56/19 83/89/18
f 161/170/139 156/165/97 109/116/98
f 156/165/97 161/170/139 138/145/140
f 55/60/127 141/148/141 112/119/100
f 23/25/47 21/23/91 24/26/142
f 21/23/91 23/25/47 155/163/71
f 22/24/20 119/126/106 120/127/22
f 17/17/143 121/128/108 11/11/86
f 128/135/131 129/136/114 37/40/38
f 76/81/110 132/139/23 77/82/121
f 136/143/95 52/57/53 53/58/55
f 54/59/144 112/119/100 25/27/25
f 56/61/129 107/114/94 103/110/92
f 141/148/141 59/64/57 142/149/145
f 158/167/146 2/2/2 1/1/7
f 40/45/42 83/88/18 79/84/33
f 40/45/42 64/69/147 9/9/148
f 16/16/11 61/66/61 123/130/14
f 123/130/14 61/66/61 62/67/60
f 18/18/15 69/74/17 119/126/106
f 27/29/67 26/28/72 71/76/68
f 160/169/26 29/31/28 72/77/32
f 73/78/35 26/28/72 30/32/149
f 155/162/71 32/35/120 38/43/10
f 115/122/150 78/83/74 139/146/73
f 65/70/31 84/91/76 41/46/44
f 39/44/63 66/71/62 158/167/146
f 127/134/124 146/153/125 53/58/55
f 165/174/151 138/145/140 166/175/111
f 163/172/152 157/166/103 57/62/56
f 144/151/153 152/159/154 68/73/155
f 144/151/153 134/141/134 152/159/154
f 71/76/68 38/42/10 36/39/69
f 42/47/156 41/46/44 74/79/43
f 80/85/27 28/30/66 29/31/28
f 29/31/28 28/30/66 79/84/33
f 80/85/27 78/83/74 28/30/66
f 21/23/91 82/87/37 24/26/142
f 82/87/37 21/23/91 106/113/93
f 155/164/71 61/66/61 16/16/11
f 87/94/78 85/92/77 100/107/119
f 70/75/24 132/139/23 147/154/157
f 126/133/36 62/67/60 34/37/34
f 37/40/38 92/99/158 81/86/39
f 129/136/114 92/99/158 37/40/38
f 94/101/159 60/65/160 1/1/7
f 50/55/51 68/73/155 69/74/17
f 156/165/97 138/145/140 110/117/30
f 141/148/141 143/150/161 113/120/101
f 115/122/150 144/151/153 145/152/162
f 52/57/53 136/143/95 116/123/102
f 90/97/84 122/129/123 121/128/108
f 129/136/114 128/135/131 147/154/157
f 123/130/14 150/157/137 162/171/128
f 152/159/154 135/142/136 69/74/17
f 157/166/103 117/124/45 140/147/112
f 89/96/81 143/150/161 142/149/145
f 60/65/160 158/167/146 1/1/7
f 153/160/29 110/117/30 138/145/140
f 89/96/81 142/149/145 44/49/105
f 50/55/51 97/104/50 122/129/123
f 129/136/114 147/154/157 161/170/139
f 163/172/152 167/176/130 168/177/116
f 109/116/98 75/80/70 74/79/43
f 77/82/121 25/27/25 111/118/99
f 140/147/112 88/95/79 87/94/78
f 63/68/64 145/152/162 90/97/84
f 127/134/124 126/133/36 154/161/132
f 133/140/85 149/156/113 131/138/133
f 91/98/135 165/174/151 76/81/110
f 148/155/58 94/101/159 58/63/59
f 121/128/108 64/69/147 90/97/84
f 123/130/14 62/67/60 150/157/137
f 135/142/136 31/33/83 69/74/17
f 69/74/17 31/33/83 159/168/82
f 108/115/96 136/143/95 53/58/55
f 109/116/98 137/144/163 161/170/139
f 138/145/140 114/121/164 139/146/73
f 57/62/56 157/166/103 99/106/49
f 140/147/112 99/106/49 157/166/103
f 122/129/123 68/73/155 50/55/51
f 108/115/96 146/153/125 54/59/144
f 162/171/128 125/132/54 56/61/129
f 6/6/1 1/1/7 2/2/2
f 40/45/42 9/9/148 83/88/18
f 20/21/40 5/5/5 12/12/75
f 155/163/71 8/8/13 13/13/12
f 38/42/10 14/14/3 15/15/165
f 17/17/143 83/89/18 9/9/148
f 95/102/118 5/5/5 20/20/40
f 95/102/118 3/3/6 5/5/5
f 17/17/143 9/9/148 64/69/147
f 104/111/21 19/19/16 18/18/15
f 155/164/71 71/76/68 26/28/72
f 27/29/67 131/138/133 26/28/72
f 131/138/133 30/32/149 26/28/72
f 160/169/26 75/80/70 110/117/30
f 113/120/101 164/173/80 31/33/83
f 65/70/31 42/47/156 72/77/32
f 63/68/64 35/38/41 115/122/150
f 35/38/41 78/83/74 115/122/150
f 115/122/150 145/152/162 63/68/64
f 39/44/63 36/39/69 38/42/10
f 20/22/40 38/43/10 32/35/120
f 63/68/64 40/45/42 35/38/41
f 65/70/31 41/46/44 42/47/156
f 43/48/122 120/127/22 44/49/105
f 155/163/71 23/25/47 20/20/40
f 21/23/91 155/163/71 49/54/89
f 101/108/52 48/53/87 97/104/50
f 51/56/19 47/52/107 96/103/138
f 103/110/92 49/54/89 124/131/109
f 151/158/115 129/136/114 137/144/163
f 54/59/144 146/153/125 55/60/127
f 103/110/92 124/131/109 56/61/129
f 61/66/61 33/36/166 34/37/34
f 64/69/147 40/45/42 67/72/65
f 69/74/17 68/73/155 152/159/154
f 136/143/95 70/75/24 128/135/131
f 71/76/68 155/164/71 38/42/10
f 34/37/34 155/164/71 73/78/35
f 72/77/32 74/79/43 75/80/70
f 29/31/28 79/84/33 72/77/32
f 73/78/35 30/32/149 154/161/132
f 81/86/39 24/26/142 82/87/37
f 66/71/62 15/15/165 2/2/2
f 66/71/62 2/2/2 86/93/167
f 126/133/36 73/78/35 154/161/132
f 147/154/157 128/135/131 70/75/24
f 76/81/110 77/82/121 91/98/135
f 92/99/158 167/176/130 81/86/39
f 94/101/159 1/1/7 93/100/117
f 7/7/8 96/103/138 93/100/117
f 19/19/16 101/108/52 102/109/168
f 48/53/87 104/111/21 51/56/19
f 21/23/91 49/54/89 103/110/92
f 101/108/52 19/19/16 105/112/90
f 110/117/30 75/80/70 156/165/97
f 114/121/164 115/122/150 139/146/73
f 126/133/36 127/134/124 125/132/54
f 130/137/126 131/138/133 149/156/113
f 137/144/163 109/116/98 118/125/104
f 139/146/73 153/160/29 138/145/140
f 46/51/46 140/147/112 100/107/119
f 149/156/113 148/155/58 141/148/141
f 163/172/152 168/177/116 151/158/115
f 4/4/4 3/3/6 95/102/118
f 98/105/88 155/163/71 13/13/12
f 69/74/17 19/19/16 102/109/168
f 113/120/101 77/82/121 111/118/99
f 88/95/79 140/147/112 117/124/45
f 7/7/8 51/56/19 96/103/138
f 124/131/109 49/54/89 98/105/88
f 45/50/48 23/25/47 167/176/130
f 133/140/85 158/167/146 148/155/58
f 135/142/136 152/159/154 134/141/134
f 140/147/112 87/94/78 100/107/119
f 166/175/111 147/154/157 132/139/23
f 134/141/134 165/174/151 91/98/135
f 150/157/137 62/67/60 126/133/36
f 129/136/114 168/177/116 92/99/158
f 93/100/117 43/48/122 94/101/159
f 44/49/105 94/101/159 43/48/122
f 96/103/138 47/52/107 43/48/122
f 50/55/51 102/109/168 101/108/52
f 101/108/52 105/112/90 48/53/87
f 22/24/20 18/18/15 119/126/106
f 121/128/108 17/17/143 64/69/147
f 17/17/143 11/11/86 83/89/18
f 10/10/9 7/7/8 6/6/1
f 98/105/88 13/13/12 123/130/14
f 167/176/130 23/25/47 24/26/142
f 133/140/85 36/39/69 39/44/63
f 39/44/63 158/167/146 133/140/85
f 135/142/136 91/98/135 31/33/83
f 143/150/161 141/148/141 142/149/145
f 137/144/163 157/166/103 151/158/115
f 157/166/103 163/172/152 151/158/115
f 158/167/146 86/93/167 2/2/2
f 65/70/31 20/21/40 12/12/75
f 66/71/62 38/42/10 15/15/165
f 159/168/82 119/126/106 69/74/17
f 35/38/41 28/30/66 78/83/74
f 155/164/71 33/36/166 61/66/61
f 117/124/45 41/46/44 88/95/79
f 142/149/145 58/63/59 44/49/105
f 53/58/55 146/153/125 108/115/96
f 137/144/163 129/136/114 161/170/139
f 55/60/127 112/119/100 54/59/144
f 114/121/164 138/145/140 165/174/151
f 59/64/57 141/148/141 148/155/58
f 34/37/34 33/36/166 155/164/71
f 65/70/31 79/84/33 20/21/40
f 38/43/10 20/22/40 83/90/18
f 42/47/156 74/79/43 72/77/32
f 132/139/23 25/27/25 77/82/121
f 80/85/27 153/160/29 139/146/73
f 8/8/13 155/164/71 16/16/11
f 12/12/75 5/5/5 84/91/76
f 85/92/77 84/91/76 5/5/5
f 2/2/2 15/15/165 14/14/3
f 100/107/119 85/92/77 5/5/5
f 131/138/133 154/161/132 30/32/149
f 77/82/121 31/33/83 91/98/135
f 54/59/144 25/27/25 108/115/96
f 112/119/100 141/148/141 113/120/101
f 166/175/111 76/81/110 165/174/151
f 68/73/155 145/152/162 144/151/153
f 68/73/155 122/129/123 145/152/162
f 154/161/132 146/153/125 127/134/124
f 166/175/111 161/170/139 147/154/157
f 162/171/128 150/157/137 125/132/54
f 50/55/51 69/74/17 102/109/168
f 113/120/101 143/150/161 164/173/80
f 116/123/102 136/143/95 82/87/37
f 37/40/38 82/87/37 136/143/95
f 118/125/104 74/79/43 117/124/45
f 163/172/152 57/62/56 167/176/130
f 158/167/146 60/65/160 148/155/58
f 89/96/81 164/173/80 143/150/161
f 122/129/123 90/97/84 145/152/162
f 92/99/158 168/177/116 167/176/130
f 44/49/105 58/63/59 94/101/159
f 148/155/58 60/65/160 94/101/159
f 114/121/164 134/141/134 144/151/153
f 144/151/153 115/122/150 114/121/164
f 157/166/103 137/144/163 118/125/104
f 89/96/81 119/126/106 159/168/82
f 67/72/65 90/97/84 64/69/147
f 27/29/67 133/140/85 131/138/133
f 167/176/130 24/26/142 81/86/39
f 66/71/62 86/93/167 158/167/146
f 52/57/53 107/114/94 56/61/129
f 59/64/57 58/63/59 142/149/145
f 161/170/139 166/175/111 138/145/140
f 55/60/127 149/156/113 141/148/141
f 165/174/151 134/141/134 114/121/164
f 52/57/53 56/61/129 125/132/54
