# Blender 3.5.1
# www.blender.org
mtllib road.mtl
o old_road
v -2.495922 -4.488934 0.079224
v -2.495922 -4.488934 0.200336
v -2.495922 4.488934 0.079224
v -2.495922 4.488934 0.200336
v 2.516006 -4.488934 0.079224
v 2.516006 -4.488934 0.200336
v 2.516006 4.488934 0.079224
v 2.516006 4.488934 0.200336
vn -1.0000 -0.0000 -0.0000
vn -0.0000 1.0000 -0.0000
vn 1.0000 -0.0000 -0.0000
vn -0.0000 -1.0000 -0.0000
vn -0.0000 -0.0000 -1.0000
vn -0.0000 -0.0000 1.0000
vt 0.999000 0.001000
vt 0.401000 0.415700
vt 0.399000 0.999000
vt 0.901000 0.001000
vt 0.401000 0.334300
vt 0.001000 0.001000
vt 0.799000 0.499000
vt 0.399000 0.334300
vt 0.999000 0.665700
vt 0.901000 0.665700
vt 0.799000 0.417700
vt 0.799000 0.001000
vt 0.799000 0.415700
vt 0.899000 0.665700
vt 0.001000 0.999000
vt 0.801000 0.665700
vt 0.799000 0.334300
vt 0.001000 0.332300
vt 0.899000 0.001000
vt 0.401000 0.499000
vt 0.001000 0.334300
vt 0.799000 0.332300
vt 0.401000 0.417700
vt 0.801000 0.001000
s 0
usemtl None
f 2/4/1 3/9/1 1/1/1
f 4/11/2 7/20/2 3/7/2
f 8/24/3 5/14/3 7/19/3
f 6/17/4 1/2/4 5/13/4
f 7/21/5 1/3/5 3/8/5
f 4/12/6 6/18/6 8/22/6
f 2/4/1 4/10/1 3/9/1
f 4/11/2 8/23/2 7/20/2
f 8/24/3 6/16/3 5/14/3
f 6/17/4 2/5/4 1/2/4
f 7/21/5 5/15/5 1/3/5
f 4/12/6 2/6/6 6/18/6
